<svg width="36" height="36" viewBox="0 0 36 36" fill="none" xmlns="http://www.w3.org/2000/svg">
  <circle cx="18" cy="18" r="17" stroke="white" stroke-width="2" />
  <path
    d="M19.1559 17.9994L25.0153 11.0151C25.1135 10.899 25.0309 10.7227 24.8791 10.7227H23.0979C22.993 10.7227 22.8925 10.7695 22.8233 10.8499L17.9907 16.611L13.1581 10.8499C13.0912 10.7695 12.9907 10.7227 12.8836 10.7227H11.1023C10.9505 10.7227 10.868 10.899 10.9662 11.0151L16.8255 17.9994L10.9662 24.9838C10.9442 25.0097 10.9301 25.0413 10.9255 25.075C10.921 25.1086 10.9262 25.1429 10.9405 25.1737C10.9548 25.2045 10.9777 25.2305 11.0064 25.2487C11.0351 25.2669 11.0684 25.2764 11.1023 25.2762H12.8836C12.9885 25.2762 13.0889 25.2294 13.1581 25.149L17.9907 19.3878L22.8233 25.149C22.8903 25.2294 22.9907 25.2762 23.0979 25.2762H24.8791C25.0309 25.2762 25.1135 25.0999 25.0153 24.9838L19.1559 17.9994Z"
    fill="white" />
</svg>
