<svg t="1701868856986" class="icon" viewBox="0 0 1024 1024" version="1.1" xmlns="http://www.w3.org/2000/svg" p-id="1563"
  width="16" height="16">
  <path
    d="M512 224C300.704 224 192 320.64 192 512l0.096 9.056c2.944 143.36 76.864 210.016 228.928 226.88l50.72 52.704c11.2 11.584 33.28 26.816 55.36 26.528 21.024-0.288 42.112-15.52 53.952-26.56l49.632-52.832C772.8 730.72 832 663.616 832 512c0-191.36-108.704-288-320-288z m-115.2 236.8h238.592a32 32 0 0 1 0 64H396.8a32 32 0 0 1 0-64z"
    fill="#09bb07" p-id="1564"></path>
  <path
    d="M512 32C191.936 32 32 191.936 32 512c0 320.064 159.936 480 480 480 320.064 0 480-159.936 480-480C992 191.936 832.064 32 512 32z m0 64c284.736 0 416 131.264 416 416s-131.264 416-416 416S96 796.736 96 512 227.264 96 512 96z"
    fill="#09bb07" fill-opacity=".15" p-id="1565"></path>
</svg>