<svg t="1701868623306" class="icon" viewBox="0 0 1024 1024" version="1.1" xmlns="http://www.w3.org/2000/svg" p-id="1402"
  width="16" height="16">
  <path
    d="M512 192c212.064 0 320 107.936 320 320s-107.936 320-320 320S192 724.064 192 512 299.936 192 512 192z m-1.6 388.8a48 48 0 1 0 0 96 48 48 0 0 0 0-96z m1.6-256a36.8 36.8 0 0 0-36.8 36.8V512a36.8 36.8 0 1 0 73.6 0v-150.4A36.8 36.8 0 0 0 512 324.8z"
    fill="#0ea5e9" p-id="1403"></path>
  <path
    d="M512 32C191.936 32 32 191.936 32 512c0 320.064 159.936 480 480 480 320.064 0 480-159.936 480-480C992 191.936 832.064 32 512 32z m0 64c284.736 0 416 131.264 416 416s-131.264 416-416 416S96 796.736 96 512 227.264 96 512 96z"
    fill="#0ea5e9" fill-opacity=".15" p-id="1404"></path>
</svg>