<svg t="1700047388083" class="icon" viewBox="0 0 1024 1024" version="1.1" xmlns="http://www.w3.org/2000/svg" p-id="3454"
  width="200" height="200">
  <path
    d="M512.16 192c231.808 0 437.536 296.384 312.16 489.984-128.896 199.04-494.208 200.96-624.352 0-80.448-124.192-28.288-286.528 79.84-389.568l11.36-10.432C352.96 227.456 430.848 192 512.16 192z m-1.76 388.8a48 48 0 1 0 0 96 48 48 0 0 0 0-96z m1.6-256a36.8 36.8 0 0 0-36.8 36.8V512a36.8 36.8 0 1 0 73.6 0v-150.4A36.8 36.8 0 0 0 512 324.8z"
    fill="#FA6400" p-id="3455"></path>
  <path
    d="M512 32C191.936 32 32 191.936 32 512c0 320.064 159.936 480 480 480 320.064 0 480-159.936 480-480C992 191.936 832.064 32 512 32z m0 64c284.736 0 416 131.264 416 416s-131.264 416-416 416S96 796.736 96 512 227.264 96 512 96z"
    fill="#FA6400" fill-opacity=".15" p-id="3456"></path>
</svg>